<?xml version="1.0" standalone="no"?>
<!DOCTYPE svg PUBLIC "-//W3C//DTD SVG 20010904//EN"
 "http://www.w3.org/TR/2001/REC-SVG-20010904/DTD/svg10.dtd">
<svg version="1.0" xmlns="http://www.w3.org/2000/svg"
 width="1506.000000pt" height="1506.000000pt" viewBox="0 0 1506.000000 1506.000000"
 preserveAspectRatio="xMidYMid meet">
<metadata>
Created by potrace 1.14, written by Peter Selinger 2001-2017
</metadata>
<g transform="translate(0.000000,1506.000000) scale(0.100000,-0.100000)"
fill="#000000" stroke="none">
<path d="M3 9934 c-2 -5 -2 -59 -1 -119 l3 -109 157 0 c104 0 158 -3 161 -10
2 -6 3 -190 3 -408 -1 -261 2 -398 9 -399 26 -3 271 -5 280 -2 7 2 11 135 10
404 0 220 2 404 5 408 3 4 75 8 160 7 l155 0 0 119 0 120 -469 0 c-323 0 -470
-3 -473 -11z"/>
<path d="M1064 9935 c-2 -5 -3 -244 -2 -530 l3 -520 148 0 147 0 0 206 0 206
203 -1 202 -1 5 -205 5 -205 145 0 145 0 0 530 0 530 -145 0 -145 0 -5 -200
-5 -200 -202 0 -203 0 0 200 0 200 -146 0 c-89 0 -148 -4 -150 -10z"/>
<path d="M2620 9935 c-4 -5 -76 -164 -159 -353 -84 -189 -162 -366 -175 -395
-13 -29 -38 -86 -56 -127 -18 -41 -41 -94 -51 -117 -11 -23 -19 -46 -19 -50 0
-12 287 -10 298 2 5 6 26 52 47 103 l38 92 224 -2 224 -3 39 -93 c21 -52 41
-97 45 -100 8 -8 305 -9 305 -1 0 5 -104 244 -155 354 -7 17 -59 134 -115 260
-55 127 -109 248 -119 270 -10 22 -29 65 -41 95 -13 30 -27 59 -32 65 -12 13
-287 14 -298 0z m213 -450 c30 -77 57 -147 60 -156 5 -14 -10 -16 -129 -17
-74 0 -134 2 -134 4 0 2 4 12 10 22 5 9 35 81 66 160 31 79 60 139 64 135 4
-4 32 -71 63 -148z"/>
<path d="M3474 9941 c-2 -2 -4 -241 -4 -530 l0 -526 150 0 150 0 -2 530 -3
530 -143 0 c-79 0 -146 -2 -148 -4z"/>
<path d="M3987 9935 c-2 -5 -3 -244 -3 -530 l1 -520 553 0 c356 0 556 4 560
10 4 5 23 50 43 100 l37 90 224 3 225 2 37 -92 c20 -51 40 -98 44 -103 4 -7
66 -11 160 -10 83 0 152 0 152 1 0 3 -96 220 -144 327 -14 32 -26 59 -26 61 0
3 -15 37 -34 78 -18 40 -84 188 -146 328 -62 140 -114 257 -117 259 -5 7 -283
7 -292 1 -4 -3 -36 -70 -71 -150 -35 -80 -76 -172 -91 -205 -15 -33 -36 -80
-47 -105 -11 -25 -72 -165 -137 -313 -65 -147 -119 -266 -121 -264 -2 2 -4 51
-5 110 l-1 107 -27 1 c-14 0 -118 1 -231 0 -113 0 -214 2 -226 4 -21 5 -21 7
-22 397 0 216 -1 400 -1 408 -1 13 -24 15 -146 15 -88 0 -146 -4 -148 -10z
m1488 -460 c31 -77 59 -145 62 -152 3 -9 -30 -12 -132 -12 -155 0 -146 -8
-100 94 12 28 39 94 60 148 29 72 41 94 46 80 4 -10 33 -81 64 -158z"/>
<path d="M6113 9933 c-10 -26 -8 -1043 2 -1044 6 -1 72 -2 148 -3 l137 -1 1
35 c0 19 0 147 0 284 0 234 1 247 17 225 9 -13 21 -29 27 -35 12 -12 61 -72
171 -204 43 -52 81 -97 84 -100 3 -3 30 -36 61 -75 31 -38 68 -83 83 -100 l26
-30 119 0 c100 -1 120 2 123 15 2 8 4 247 3 530 l0 514 -145 0 -145 0 -5 -278
-5 -277 -150 181 c-82 99 -158 191 -168 203 -18 21 -80 95 -123 146 -21 24
-26 25 -139 26 -84 0 -119 -4 -122 -12z"/>
<path d="M7332 9932 c-3 -8 -5 -245 -6 -527 -1 -449 1 -514 14 -518 8 -2 146
-3 305 -2 239 2 302 5 360 20 246 62 395 230 412 466 18 258 -118 460 -368
542 -74 25 -149 30 -438 31 -221 1 -275 -2 -279 -12z m568 -237 c88 -19 154
-72 191 -150 35 -74 32 -192 -5 -268 -55 -114 -133 -150 -328 -153 -88 -1
-128 2 -129 10 -5 59 -2 562 3 566 11 9 228 5 268 -5z"/>
<path d="M4870 7977 c-3 -3 -33 -8 -67 -11 -35 -4 -68 -9 -75 -11 -7 -2 -24
-6 -38 -9 -47 -8 -145 -36 -200 -57 -30 -11 -63 -23 -74 -26 -10 -3 -48 -22
-85 -41 -379 -198 -636 -516 -736 -907 -22 -87 -27 -116 -40 -220 -5 -41 -6
-285 -1 -310 2 -11 8 -45 12 -75 4 -30 8 -57 9 -60 13 -61 21 -90 47 -168 67
-208 183 -391 348 -554 273 -268 637 -410 1050 -412 61 0 213 12 251 19 13 3
39 8 58 11 19 3 45 10 58 15 13 5 23 7 23 4 0 -8 204 66 278 101 74 35 186
102 226 134 236 188 369 359 470 602 79 192 106 345 102 583 -2 88 -6 171 -10
185 -3 14 -9 45 -12 69 -6 44 -38 157 -67 237 -39 107 -124 256 -206 359 -68
86 -189 206 -250 247 -25 18 -48 35 -51 38 -15 19 -188 112 -275 147 -194 78
-324 103 -560 109 -100 3 -183 3 -185 1z m364 -587 c178 -48 334 -154 446
-304 40 -55 93 -145 85 -147 -3 -1 -8 -2 -12 -4 -5 -1 -21 -5 -38 -10 -48 -13
-175 -81 -240 -130 -75 -56 -172 -149 -211 -201 -16 -21 -34 -45 -41 -52 -10
-11 -65 -121 -89 -181 -10 -23 -12 -22 -65 40 -30 35 -79 87 -109 114 -30 28
-57 52 -60 55 -50 53 -305 220 -335 220 -7 0 -15 4 -17 8 -2 7 -172 73 -181
71 -1 0 -30 3 -64 6 l-62 7 25 55 c90 204 277 374 488 443 130 42 344 47 480
10z m519 -1272 c-85 -160 -210 -283 -368 -360 l-70 -34 0 127 0 127 55 -1 c81
0 160 20 212 55 14 10 29 18 33 18 9 0 139 101 143 112 2 4 8 8 13 8 6 0 -2
-24 -18 -52z"/>
<path d="M12228 7975 c-2 -1 -30 -5 -63 -9 -205 -21 -441 -109 -630 -237 -90
-61 -261 -226 -321 -309 -72 -100 -82 -116 -124 -199 -116 -231 -160 -433
-155 -706 6 -388 139 -714 399 -983 183 -189 488 -352 727 -387 24 -4 46 -8
49 -10 5 -3 148 -16 208 -19 19 -1 37 3 40 9 4 5 7 132 8 281 l1 271 -66 6
c-199 18 -343 86 -483 229 -90 90 -155 195 -197 317 -36 106 -46 172 -46 321
0 146 8 206 39 298 54 156 100 234 207 343 123 126 292 205 480 224 l65 7 0
279 1 280 -68 -2 c-38 -1 -70 -3 -71 -4z"/>
<path d="M0 7668 l0 -268 583 -1 c320 0 596 -3 612 -5 62 -10 152 -45 188 -75
58 -48 87 -106 91 -184 10 -175 -79 -269 -294 -311 -19 -4 -291 -7 -605 -8
l-570 -1 -3 -253 -2 -252 612 -1 c601 0 667 -1 738 -14 119 -20 209 -77 253
-160 32 -58 31 -202 0 -262 -40 -75 -102 -121 -204 -150 -58 -16 -125 -18
-729 -19 l-665 -2 -3 -266 c-2 -248 -1 -266 15 -267 10 0 304 -1 653 -1 572 0
721 3 800 17 128 22 168 31 253 60 347 118 521 360 511 712 -6 244 -92 410
-277 536 -65 44 -186 107 -206 107 -26 0 -17 21 16 41 107 64 213 181 258 283
88 199 76 461 -30 636 -87 144 -229 251 -417 314 -165 56 -218 59 -930 60
l-648 1 0 -267z"/>
<path d="M2593 7926 c-5 -7 -8 -2621 -4 -2736 l1 -26 303 0 304 0 0 1383 0
1383 -21 1 c-188 5 -579 2 -583 -5z"/>
<path d="M6408 7932 l-28 -3 0 -280 0 -279 228 0 227 0 -1 -1100 c0 -605 2
-1101 5 -1101 3 -1 138 -3 299 -3 256 -2 294 0 301 13 4 9 7 510 6 1113 l-1
1098 816 2 815 3 0 268 1 267 -31 0 c-176 3 -2617 4 -2637 2z"/>
<path d="M9179 7915 c-1 -27 -1 -474 0 -502 l1 -23 700 0 700 0 0 270 c0 209
-3 270 -12 271 -7 0 -322 1 -701 2 -681 2 -687 2 -688 -18z"/>
<path d="M12775 7930 l-60 -5 0 -1378 c0 -1216 2 -1378 15 -1381 13 -3 577 -1
590 3 3 0 5 245 5 544 -1 298 0 547 2 552 2 7 197 10 566 9 309 -1 564 -2 567
-3 3 0 5 -250 5 -553 l0 -553 297 0 296 0 0 1382 0 1383 -21 0 c-51 1 -448 2
-514 1 l-73 -1 0 -545 c0 -512 -1 -545 -17 -546 -10 0 -262 -1 -561 -2 -355
-1 -542 1 -543 8 -1 6 -2 252 -3 548 l-1 538 -245 2 c-135 1 -272 0 -305 -3z"/>
<path d="M8577 7292 c-15 -3 -16 -84 -14 -1065 l2 -1062 1008 0 1007 -1 0 271
0 270 -705 0 c-465 0 -705 3 -706 10 -1 13 -1 523 0 551 l1 22 693 0 c380 0
698 1 705 1 9 1 12 62 12 271 l0 270 -705 0 c-557 0 -705 3 -706 13 -1 6 -1
110 -1 230 l0 217 -32 1 c-116 3 -545 3 -559 1z"/>
</g>
</svg>
